<svg width="88" height="88" viewBox="0 0 88 88" fill="none" xmlns="http://www.w3.org/2000/svg">
<g id="tabler:brand-figma">
<rect y="32" width="64" height="64" rx="32" transform="rotate(-30 0 32)" fill="#F77F00"/>
<g id="Group">
<path id="Vector" d="M46.7586 43.5951C47.6033 45.0581 49.0562 46.0901 50.7979 46.4639C52.5395 46.8377 54.4271 46.5228 56.0455 45.5885C57.6638 44.6541 58.8803 43.1768 59.4274 41.4816C59.9745 39.7864 59.8073 38.0121 58.9626 36.5491C58.1179 35.0861 56.6649 34.0541 54.9233 33.6803C53.1817 33.3065 51.2941 33.6214 49.6757 34.5557C48.0574 35.4901 46.8408 36.9674 46.2938 38.6626C45.7467 40.3578 45.9139 42.1321 46.7586 43.5951Z" stroke="#D62828" stroke-width="1.83333" stroke-linecap="round" stroke-linejoin="round"/>
<path id="Vector_2" d="M28.1849 39.6083C27.3402 38.1453 27.173 36.371 27.7201 34.6758C28.2671 32.9806 29.4837 31.5033 31.102 30.569L43.306 23.523C44.9244 22.5886 46.812 22.2737 48.5536 22.6476C50.2952 23.0214 51.7482 24.0533 52.5929 25.5164C53.4376 26.9794 53.6048 28.7537 53.0577 30.4489C52.5106 32.1441 51.2941 33.6214 49.6758 34.5557L37.4718 41.6017C35.8534 42.5361 33.9658 42.851 32.2242 42.4771C30.4825 42.1033 29.0296 41.0714 28.1849 39.6083Z" stroke="#D62828" stroke-width="1.83333" stroke-linecap="round" stroke-linejoin="round"/>
<path id="Vector_3" d="M37.4718 41.6017C35.8534 42.5361 34.6369 44.0133 34.0898 45.7086C33.5428 47.4038 33.7099 49.178 34.5546 50.6411C35.3993 52.1041 36.8523 53.136 38.5939 53.5099C40.3355 53.8837 42.2232 53.5688 43.8415 52.6344M43.8415 52.6344L49.9435 49.1115M43.8415 52.6344C42.6346 53.3312 41.6417 54.3359 40.9882 55.5214C40.3347 56.7069 40.05 58.02 40.1701 59.2946C40.2902 60.5692 40.8097 61.7482 41.663 62.6823C42.5162 63.6164 43.6649 64.2638 44.9637 64.5426C46.2625 64.8214 47.6531 64.719 48.9596 64.2485C50.2662 63.7779 51.43 62.9603 52.304 61.8991C53.1779 60.8378 53.7227 59.5806 53.8694 58.2863C54.0162 56.992 53.7583 55.7189 53.1284 54.6278L37.204 27.046" stroke="#D62828" stroke-width="1.83333" stroke-linecap="round" stroke-linejoin="round"/>
</g>
</g>
</svg>
