<svg width="88" height="88" viewBox="0 0 88 88" fill="none" xmlns="http://www.w3.org/2000/svg">
<g id="tabler:brand-dribbble">
<rect y="32" width="64" height="64" rx="32" transform="rotate(-30 0 32)" fill="#FCBF49"/>
<g id="Group">
<path id="Vector" d="M29.9389 51.8557C31.0003 53.6941 32.4134 55.3055 34.0976 56.5978C35.7817 57.8901 37.7039 58.838 39.7544 59.3874C41.8049 59.9368 43.9435 60.077 46.0482 59.7999C48.1528 59.5228 50.1823 58.8339 52.0207 57.7725C53.8591 56.7111 55.4705 55.298 56.7628 53.6138C58.0551 51.9297 59.003 50.0075 59.5524 47.957C60.1018 45.9065 60.242 43.7679 59.9649 41.6633C59.6878 39.5586 58.9989 37.5291 57.9375 35.6907C56.8761 33.8523 55.463 32.2409 53.7788 30.9486C52.0947 29.6564 50.1725 28.7084 48.122 28.159C46.0715 27.6096 43.9329 27.4694 41.8283 27.7465C39.7236 28.0236 37.6941 28.7125 35.8557 29.7739C34.0173 30.8353 32.4059 32.2484 31.1137 33.9326C29.8214 35.6167 28.8735 37.5389 28.324 39.5894C27.7746 41.6399 27.6344 43.7785 27.9115 45.8832C28.1886 47.9878 28.8775 50.0173 29.9389 51.8557Z" stroke="#003049" stroke-width="1.83333" stroke-linecap="round" stroke-linejoin="round"/>
<path id="Vector_2" d="M31.7281 33.4014C44.8938 38.2439 52.046 43.4475 57.9427 51.8647" stroke="#003049" stroke-width="1.83333" stroke-linecap="round" stroke-linejoin="round"/>
<path id="Vector_3" d="M41.5139 59.6907C43.8149 51.1033 45.0094 44.1917 58.3208 36.7138M28.9719 49.8215C36.7493 45.3313 43.8961 40.417 48.3022 28.2913" stroke="#003049" stroke-width="1.83333" stroke-linecap="round" stroke-linejoin="round"/>
</g>
</g>
</svg>
